REM DIRINDEX 1\2\6,1\2\7,1\2\8,1\2\9,1\3\10,1\3\11,1\4\12,1\4\13,1\4\14,1\5\15,1\5\16,1\5\17
REM DIRNAME folder01,folder02,folder03,folder04,folder05,folder06,folder07,folder08,folder09,folder10,folder11,folder12,folder13,folder14,folder15,folder16,folder17
TITLE ""
FILE "1900_2_sec02_0146_0162.mp3" MP3
  TRACK 01 AUDIO
    TITLE "0:"
    INDEX 01 00:00:00
  TRACK 02 AUDIO
    TITLE "13:cjc020_2381"
    INDEX 01 00:00:19
  TRACK 03 AUDIO
    TITLE "0:"
    INDEX 01 00:01:48
  TRACK 04 AUDIO
    TITLE "14:cjc020_2382"
    INDEX 01 00:01:50
  TRACK 05 AUDIO
    TITLE "0:"
    INDEX 01 00:05:38
  TRACK 06 AUDIO
    TITLE "13:cjc020_2383"
    INDEX 01 00:06:22
  TRACK 07 AUDIO
    TITLE "0:"
    INDEX 01 00:07:31
  TRACK 08 AUDIO
    TITLE "14:cjc020_2384"
    INDEX 01 00:07:33
  TRACK 09 AUDIO
    TITLE "0:"
    INDEX 01 00:09:45
  TRACK 10 AUDIO
    TITLE "13:cjc020_2385"
    INDEX 01 00:10:27
  TRACK 11 AUDIO
    TITLE "0:"
    INDEX 01 00:11:33
  TRACK 12 AUDIO
    TITLE "14:cjc020_2386"
    INDEX 01 00:11:37
  TRACK 13 AUDIO
    TITLE "0:"
    INDEX 01 00:16:63
  TRACK 14 AUDIO
    TITLE "13:cjc020_2387"
    INDEX 01 00:17:41
  TRACK 15 AUDIO
    TITLE "0:"
    INDEX 01 00:18:56
  TRACK 16 AUDIO
    TITLE "14:cjc020_2388"
    INDEX 01 00:18:62
  TRACK 17 AUDIO
    TITLE "0:"
    INDEX 01 00:22:23
  TRACK 18 AUDIO
    TITLE "13:cjc020_2389"
    INDEX 01 00:23:04
  TRACK 19 AUDIO
    TITLE "0:"
    INDEX 01 00:24:24
  TRACK 20 AUDIO
    TITLE "14:cjc020_2390"
    INDEX 01 00:24:27
  TRACK 21 AUDIO
    TITLE "0:"
    INDEX 01 00:27:53
  TRACK 22 AUDIO
    TITLE "13:cjc020_2391"
    INDEX 01 00:28:33
  TRACK 23 AUDIO
    TITLE "0:"
    INDEX 01 00:29:50
  TRACK 24 AUDIO
    TITLE "14:cjc020_2392"
    INDEX 01 00:29:54
  TRACK 25 AUDIO
    TITLE "0:"
    INDEX 01 00:31:69
  TRACK 26 AUDIO
    TITLE "13:cjc020_2393"
    INDEX 01 00:32:50
  TRACK 27 AUDIO
    TITLE "0:"
    INDEX 01 00:33:66
  TRACK 28 AUDIO
    TITLE "14:cjc020_2394"
    INDEX 01 00:33:71
  TRACK 29 AUDIO
    TITLE "0:"
    INDEX 01 00:37:16
  TRACK 30 AUDIO
    TITLE "13:cjc020_2395"
    INDEX 01 00:38:00
  TRACK 31 AUDIO
    TITLE "0:"
    INDEX 01 00:39:13
  TRACK 32 AUDIO
    TITLE "14:cjc020_2396"
    INDEX 01 00:39:15
  TRACK 33 AUDIO
    TITLE "0:"
    INDEX 01 00:42:21
  TRACK 34 AUDIO
    TITLE "13:cjc020_2397"
    INDEX 01 00:42:72
  TRACK 35 AUDIO
    TITLE "0:"
    INDEX 01 00:43:74
  TRACK 36 AUDIO
    TITLE "14:cjc020_2398"
    INDEX 01 00:44:05
  TRACK 37 AUDIO
    TITLE "0:"
    INDEX 01 00:47:34
  TRACK 38 AUDIO
    TITLE "13:cjc020_2399"
    INDEX 01 00:48:16
  TRACK 39 AUDIO
    TITLE "0:"
    INDEX 01 00:49:25
  TRACK 40 AUDIO
    TITLE "14:cjc020_2400"
    INDEX 01 00:49:31
  TRACK 41 AUDIO
    TITLE "0:"
    INDEX 01 00:51:36
  TRACK 42 AUDIO
    TITLE "13:cjc020_2401"
    INDEX 01 00:52:18
  TRACK 43 AUDIO
    TITLE "0:"
    INDEX 01 00:53:23
  TRACK 44 AUDIO
    TITLE "14:cjc020_2402"
    INDEX 01 00:53:27
  TRACK 45 AUDIO
    TITLE "0:"
    INDEX 01 00:57:01
  TRACK 46 AUDIO
    TITLE "13:cjc020_2403"
    INDEX 01 00:57:56
  TRACK 47 AUDIO
    TITLE "0:"
    INDEX 01 00:58:60
  TRACK 48 AUDIO
    TITLE "14:cjc020_2404"
    INDEX 01 00:58:64
  TRACK 49 AUDIO
    TITLE "0:"
    INDEX 01 01:02:16
  TRACK 50 AUDIO
    TITLE "13:cjc020_2405"
    INDEX 01 01:02:73
  TRACK 51 AUDIO
    TITLE "0:"
    INDEX 01 01:03:71
  TRACK 52 AUDIO
    TITLE "14:cjc020_2406"
    INDEX 01 01:04:05
  TRACK 53 AUDIO
    TITLE "0:"
    INDEX 01 01:07:64
  TRACK 54 AUDIO
    TITLE "13:cjc020_2407"
    INDEX 01 01:08:42
  TRACK 55 AUDIO
    TITLE "0:"
    INDEX 01 01:09:54
  TRACK 56 AUDIO
    TITLE "14:cjc020_2408"
    INDEX 01 01:09:57
  TRACK 57 AUDIO
    TITLE "0:"
    INDEX 01 01:13:71
  TRACK 58 AUDIO
    TITLE "13:cjc020_2409"
    INDEX 01 01:14:59
  TRACK 59 AUDIO
    TITLE "0:"
    INDEX 01 01:15:62
  TRACK 60 AUDIO
    TITLE "14:cjc020_2410"
    INDEX 01 01:15:64
  TRACK 61 AUDIO
    TITLE "0:"
    INDEX 01 01:16:71
  TRACK 62 AUDIO
    TITLE "13:cjc020_2411"
    INDEX 01 01:17:51
  TRACK 63 AUDIO
    TITLE "0:"
    INDEX 01 01:18:74
  TRACK 64 AUDIO
    TITLE "14:cjc020_2412"
    INDEX 01 01:19:03
  TRACK 65 AUDIO
    TITLE "0:"
    INDEX 01 01:22:01
  TRACK 66 AUDIO
    TITLE "13:cjc020_2413"
    INDEX 01 01:22:56
  TRACK 67 AUDIO
    TITLE "0:"
    INDEX 01 01:23:73
  TRACK 68 AUDIO
    TITLE "14:cjc020_2414"
    INDEX 01 01:24:00
  TRACK 69 AUDIO
    TITLE "0:"
    INDEX 01 01:25:23
